#N canvas 2741 88 958 1029 10;
#X declare -lib mrpeach;
#X obj 177 18 import mrpeach;
#X obj 96 142 udpsend;
#X msg -10 8 connect localhost 10001;
#X obj 99 175 tgl 15 0 empty empty empty 17 7 0 10 -262144 -1 -1 1
1;
#X msg 97 97 disconnect;
#X obj 77 74 packOSC;
#X obj 81 288 ctlin;
#X obj 81 347 pack f f f;
#X obj 45 410 print m;
#X msg 81 371 \$2 \$1;
#X obj 81 318 / 127;
#X msg 103 521 sendtyped /formant_period f \$1;
#X obj 77 49 r osc;
#X obj 103 675 s osc;
#X msg 145 549 sendtyped /noise_volume f \$1;
#X msg 178 629 sendtyped /formant_rand_range f \$1;
#X msg 166 609 sendtyped /formant_center f \$1;
#X obj 104 397 send midi;
#X obj 623 283 r midi;
#X obj 623 311 route 113;
#X msg 623 339 sendtyped /tone_volume f \$1;
#X obj 623 366 s osc;
#X obj 114 479 route 0 112 1 2 3;
#X msg 158 581 sendtyped /formant_time f \$1;
#X connect 1 0 3 0;
#X connect 2 0 1 0;
#X connect 4 0 1 0;
#X connect 5 0 1 0;
#X connect 6 0 10 0;
#X connect 6 1 7 1;
#X connect 6 2 7 2;
#X connect 7 0 9 0;
#X connect 9 0 8 0;
#X connect 9 0 17 0;
#X connect 9 0 22 0;
#X connect 10 0 7 0;
#X connect 11 0 13 0;
#X connect 12 0 5 0;
#X connect 14 0 13 0;
#X connect 15 0 13 0;
#X connect 16 0 13 0;
#X connect 18 0 19 0;
#X connect 19 0 20 0;
#X connect 20 0 21 0;
#X connect 22 0 11 0;
#X connect 22 1 14 0;
#X connect 22 2 23 0;
#X connect 22 3 16 0;
#X connect 22 4 15 0;
#X connect 23 0 13 0;
