#N canvas 2741 88 958 1029 10;
#X declare -lib mrpeach;
#X obj 177 18 import mrpeach;
#X obj 96 142 udpsend;
#X msg -10 8 connect localhost 10001;
#X obj 99 175 tgl 15 0 empty empty empty 17 7 0 10 -262144 -1 -1 1
1;
#X msg 97 97 disconnect;
#X obj 77 74 packOSC;
#X obj 81 288 ctlin;
#X obj 81 347 pack f f f;
#X obj 2 482 print m;
#X msg 81 371 \$2 \$1;
#X msg 99 576 sendtyped /formant_period f \$1;
#X obj 77 49 r osc;
#X obj 99 730 s osc;
#X msg 141 604 sendtyped /noise_volume f \$1;
#X msg 174 684 sendtyped /formant_rand_range f \$1;
#X msg 162 664 sendtyped /formant_center f \$1;
#X msg 623 339 sendtyped /tone_volume f \$1;
#X obj 623 455 s osc;
#X msg 154 636 sendtyped /formant_time f \$1;
#X obj 110 534 route 120 112 1 2 3;
#X obj 622 284 r fmidi;
#X obj 104 397 send midi;
#X obj 110 498 r fmidi;
#X obj 205 266 r midi;
#X obj 205 297 unpack f f;
#X obj 262 327 / 127;
#X obj 205 353 pack f f;
#X obj 205 384 send fmidi;
#X obj 361 275 r midi;
#X obj 361 308 route 0 4;
#X obj 361 398 s osc;
#X msg 361 345 sendtyped /noise_pan i \$1;
#X msg 378 370 sendtyped /tone_pan i \$1;
#X msg 671 361 sendtyped /tone_pan_spread f \$1;
#X msg 682 387 sendtyped /tone_freq_spread f \$1;
#X msg 692 418 sendtyped /tone_volume_spread f \$1;
#X obj 623 311 route 113 5 6 7;
#X connect 1 0 3 0;
#X connect 2 0 1 0;
#X connect 4 0 1 0;
#X connect 5 0 1 0;
#X connect 6 0 7 0;
#X connect 6 1 7 1;
#X connect 6 2 7 2;
#X connect 7 0 9 0;
#X connect 9 0 8 0;
#X connect 9 0 21 0;
#X connect 10 0 12 0;
#X connect 11 0 5 0;
#X connect 13 0 12 0;
#X connect 14 0 12 0;
#X connect 15 0 12 0;
#X connect 16 0 17 0;
#X connect 18 0 12 0;
#X connect 19 0 10 0;
#X connect 19 1 13 0;
#X connect 19 2 18 0;
#X connect 19 3 15 0;
#X connect 19 4 14 0;
#X connect 20 0 36 0;
#X connect 22 0 19 0;
#X connect 23 0 24 0;
#X connect 24 0 26 0;
#X connect 24 1 25 0;
#X connect 25 0 26 1;
#X connect 26 0 27 0;
#X connect 28 0 29 0;
#X connect 29 0 31 0;
#X connect 29 1 32 0;
#X connect 31 0 30 0;
#X connect 32 0 30 0;
#X connect 33 0 17 0;
#X connect 34 0 17 0;
#X connect 35 0 17 0;
#X connect 36 0 16 0;
#X connect 36 1 33 0;
#X connect 36 2 34 0;
#X connect 36 3 35 0;
